<svg xmlns="http://www.w3.org/2000/svg" viewBox="0 0 24 24" width="20" height="20">
  <path fill="#E17726" d="M22.45 1.38L13.76 7.82l1.61-3.78 7.08-2.66z"/>
  <path fill="#E27625" d="M1.55 1.38l8.57 6.51-1.45-3.85L1.55 1.38z"/>
  <path fill="#E27625" d="M19.23 16.89l-2.31 3.53 4.95 1.36 1.42-4.78-4.06-.11z"/>
  <path fill="#E27625" d="M.69 16.98l1.41 4.78 4.95-1.36L4.74 16.89l-4.05.09z"/>
  <path fill="#E27625" d="M6.83 10.68L5.59 12.56l4.9.22-.16-5.27-3.5 3.17z"/>
  <path fill="#E27625" d="M17.17 10.68l-3.6-3.25-.11 5.35 4.9-.22-1.19-1.88z"/>
  <path fill="#E27625" d="M7.05 20.42l2.95-1.44-2.54-1.98-.41 3.42z"/>
  <path fill="#E27625" d="M14.00 18.98l2.95 1.44-.41-3.42-2.54 1.98z"/>
  <path fill="#D5BFB2" d="M16.95 20.42L14 18.98l.24 1.96-.03.94 2.74-1.46z"/>
  <path fill="#D5BFB2" d="M7.05 20.42l2.74 1.46-.02-.94.23-1.96L7.05 20.42z"/>
  <path fill="#233447" d="M9.85 14.89l-2.45-.72.73-1.57 1.72 2.29z"/>
  <path fill="#233447" d="M14.15 14.89l1.72-2.29.73 1.57-2.45.72z"/>
  <path fill="#CC6228" d="M7.05 20.42L7.47 17l-2.67.08 2.25 3.34z"/>
  <path fill="#CC6228" d="M16.95 20.42l2.25-3.34-2.67-.08.42 3.42z"/>
  <path fill="#CC6228" d="M18.41 12.56l-4.9.22.45 2.11 1.72-2.29.73 1.57 1.9-1.61z"/>
  <path fill="#CC6228" d="M7.4 14.17l.73-1.57 1.72 2.29.45-2.11-4.9-.22L7.4 14.17z"/>
  <path fill="#E27525" d="M5.59 12.56L7.46 17l-.41-3.42 2.54 1.98L7.4 14.17l-1.81-1.61z"/>
  <path fill="#E27525" d="M18.41 12.56l-1.81 1.61-2.19 1.39 2.54-1.98L16.54 17l1.87-4.44z"/>
  <path fill="#F5841F" d="M14.15 14.89l-.45 2.11.57 2.98 1.28-3.86-.45-1.23-1.45 0z"/>
  <path fill="#F5841F" d="M9.85 14.89l-.4 1.23-.45 3.86 1.28-2.98.57-2.11z"/>
  <path fill="#C0AC9D" d="M14.24 17l-.57 2.98.41.28 2.54-1.98.4-3.42L14.24 17z"/>
  <path fill="#C0AC9D" d="M7.4 14.17l.41 3.42 2.54 1.98.41-.28L9.76 17l-2.36 0z"/>
</svg> 